<svg version="1.0" xmlns="http://www.w3.org/2000/svg" width="933.333" height="933.333" viewBox="0 0 700 700"><path d="M214.5 108.9c-.4 1.4-.9 3.7-1.1 5.1-.3 1.4-1.1 5.3-1.9 8.8-.8 3.4-1.7 7.5-2 9.1-.3 1.6-2.1 10.5-4.1 19.8-1.9 9.2-5.2 25.3-7.4 35.8-2.1 10.4-4.3 21-4.9 23.5-1.5 6.5-5.9 27.9-6.6 31.9-.3 1.9-.7 3.7-.9 4-.2.3-.7 2.3-1 4.4-.3 2.2-1.1 5.8-1.6 8-.9 3.8-10.6 50.3-11.6 55.2-.2 1.1-.7 3.3-1.1 5-1.2 5.6-2 43.7-.9 51 .3 2.2 1 7.4 1.6 11.5 2 14.5 4 24 8.5 39.5 9.2 31.7 14.6 41.6 31.4 58.5 19.7 19.8 41.1 32.7 63.6 38.5 27.6 7.2 65.5 14.1 76.5 13.9 29-.4 59.9-9.5 79.8-23.3 7.7-5.5 7.5-5.2 18.3-17.1 14.9-16.5 28.5-34.5 36.7-48.5 10.2-17.6 21.1-44.9 24.1-60 1.1-5.5 2.2-10.7 2.5-11.5.3-.8.7-2.6 1-4 .2-1.4 1.1-5.7 2-9.5.8-3.9 1.7-8.2 2-9.5.2-1.4 1.1-5.7 2-9.5.8-3.9 1.7-8.2 2-9.5.2-1.4 1.1-5.7 2-9.5.8-3.9 1.7-8.2 2-9.5.2-1.4 1.2-5.9 2.1-10 4.2-19 6.2-28 8-37.3 1.2-6.4 1.7-8.5 3.1-14.7 1.2-5.3 2.6-12 4.9-23 4.5-21.9 6-28.8 7.6-35.5 2.4-10.1 2.4-13.2.2-13.9-1-.3-11-2.6-22.2-5.1-21.5-4.8-21.4-4.8-22.6 0-.7 2.7-13.6 65.3-14.1 68.5-.3 1.4-.7 3.2-.9 4-.2.8-.7 3.1-1 5-.3 1.9-1.1 5.5-1.6 8-.6 2.5-1.3 5.6-1.5 7-.3 1.4-1.4 6.7-2.5 11.9-1.2 5.1-2.2 10.1-2.4 11-.2.9-.8 3.6-1.4 6.1-.5 2.5-1.2 6-1.6 7.8-.3 1.8-1.2 6.5-2.1 10.5-.8 3.9-1.8 8.3-2 9.7-.3 1.4-1.4 6.5-2.4 11.5-1.1 4.9-2.1 10.1-2.4 11.5-.2 1.4-1 4.9-1.6 7.8-1.4 6.4-1.5 6.6-2.4 11.7-5.6 29.6-14.4 49.3-33 74-19.8 26.3-39.5 42.3-58.8 47.9-8.6 2.6-9.7 2.7-19.3 3-7.4.3-12.7-.4-30.1-3.9-11.7-2.4-22-4.5-23-4.9-1.1-.3-3.5-.8-5.4-1.1-20.2-3.4-35-10.5-47.1-22.7-16.7-16.8-29.9-51.8-34.5-91.3-.5-4.7-.5-26.6 0-30.5.3-1.9 1.9-10 3.6-18 1.7-8 3.3-15.9 3.5-17.5.3-1.7 1.2-5.9 2-9.5.8-3.6 2.5-11.9 3.9-18.5s4.6-21.9 7.2-34c2.5-12.1 4.8-22.9 5-24 .2-1.1.8-4.3 1.4-7 .6-2.8 1.2-5.9 1.4-7 .2-1.1 2-9.4 3.9-18.5s3.8-18.3 4.3-20.5c.4-2.2.8-4.2.9-4.5 0-.3.4-2.1.8-4 1-4.7 1.3-6.3 3.2-15 2.4-11.1 2.4-11.1 3.1-16.3.4-2.6.5-4.7.3-4.7s-6.2-1.2-13.4-2.6c-7.1-1.4-14.3-2.8-16-3.1-1.6-.2-5.8-1-9.2-1.7l-6.2-1.3-.6 2.6zM196 453.4c0 .6-.7.1-1.5-1-.8-1-1.5-2.3-1.5-2.8 0-.6.7-.1 1.5 1 .8 1 1.5 2.3 1.5 2.8zm10.9 16c-.2.2-1.3-.8-2.3-2.2l-1.9-2.7 2.4 2.2c1.2 1.2 2.1 2.4 1.8 2.7zm4.7 4.8l2.9 3.3-3.2-2.9c-3.1-2.8-3.8-3.6-3-3.6.2 0 1.6 1.5 3.3 3.2zm7.9 7.8c2.1 2.2 3.7 4 3.4 4-.3 0-2.3-1.8-4.4-4-2.1-2.2-3.7-4-3.4-4 .3 0 2.3 1.8 4.4 4z"/></svg>