<svg width="48" height="48" fill="none" xmlns="http://www.w3.org/2000/svg"><g clip-path="url(#clip0_122_1097)"><path d="M23.987.013C10.74.015.004 10.757.007 24.003c0 4.588 1.317 9.078 3.792 12.94L.067 46.625a1 1 0 001.27 1.301l9.994-3.568c11.244 7.004 26.037 3.565 33.04-7.68 7.003-11.244 3.565-26.036-7.68-33.04A23.986 23.986 0 0023.987.014z" fill="#55CD6C"/><path d="M35.422 28.098s-2.448-1.2-3.982-1.999c-1.735-.893-3.773.78-4.733 1.731a12.029 12.029 0 01-4.011-2.546 12.018 12.018 0 01-2.547-4.012c.951-.961 2.62-2.998 1.731-4.733a332.988 332.988 0 01-1.999-3.984 1 1 0 00-.891-.55h-2a6.022 6.022 0 00-4.997 5.997c0 3.138 3.756 9.167 6.288 11.701 2.533 2.534 8.561 6.288 11.701 6.288a6.023 6.023 0 005.997-4.997v-1.998a1 1 0 00-.558-.898z" fill="#FAFAFA"/></g><defs><clipPath id="clip0_122_1097"><path fill="#fff" d="M0 0h48v48H0z"/></clipPath></defs></svg>