<?xml version="1.0" standalone="no"?>
<!DOCTYPE svg PUBLIC "-//W3C//DTD SVG 20010904//EN"
 "http://www.w3.org/TR/2001/REC-SVG-20010904/DTD/svg10.dtd">
<svg version="1.0" xmlns="http://www.w3.org/2000/svg"
 width="700.000000pt" height="700.000000pt" viewBox="0 0 700.000000 700.000000"
 preserveAspectRatio="xMidYMid meet">
<metadata>
Created by potrace 1.14, written by Peter Selinger 2001-2017
</metadata>
<g transform="translate(0.000000,700.000000) scale(0.100000,-0.100000)"
fill="#000000" stroke="none">
<path d="M2145 5911 c-4 -14 -9 -37 -11 -51 -3 -14 -11 -53 -19 -88 -8 -34
-17 -75 -20 -91 -3 -16 -21 -105 -41 -198 -19 -92 -52 -253 -74 -358 -21 -104
-43 -210 -49 -235 -15 -65 -59 -279 -66 -319 -3 -19 -7 -37 -9 -40 -2 -3 -7
-23 -10 -44 -3 -22 -11 -58 -16 -80 -9 -38 -106 -503 -116 -552 -2 -11 -7 -33
-11 -50 -12 -56 -20 -437 -9 -510 3 -22 10 -74 16 -115 20 -145 40 -240 85
-395 92 -317 146 -416 314 -585 197 -198 411 -327 636 -385 276 -72 655 -141
765 -139 290 4 599 95 798 233 77 55 75 52 183 171 149 165 285 345 367 485
102 176 211 449 241 600 11 55 22 107 25 115 3 8 7 26 10 40 2 14 11 57 20 95
8 39 17 82 20 95 2 14 11 57 20 95 8 39 17 82 20 95 2 14 11 57 20 95 8 39 17
82 20 95 2 14 12 59 21 100 42 190 62 280 80 373 12 64 17 85 31 147 12 53 26
120 49 230 45 219 60 288 76 355 24 101 24 132 2 139 -10 3 -110 26 -222 51
-215 48 -214 48 -226 0 -7 -27 -136 -653 -141 -685 -3 -14 -7 -32 -9 -40 -2
-8 -7 -31 -10 -50 -3 -19 -11 -55 -16 -80 -6 -25 -13 -56 -15 -70 -3 -14 -14
-67 -25 -119 -12 -51 -22 -101 -24 -110 -2 -9 -8 -36 -14 -61 -5 -25 -12 -60
-16 -78 -3 -18 -12 -65 -21 -105 -8 -39 -18 -83 -20 -97 -3 -14 -14 -65 -24
-115 -11 -49 -21 -101 -24 -115 -2 -14 -10 -49 -16 -78 -14 -64 -15 -66 -24
-117 -56 -296 -144 -493 -330 -740 -198 -263 -395 -423 -588 -479 -86 -26 -97
-27 -193 -30 -74 -3 -127 4 -301 39 -117 24 -220 45 -230 49 -11 3 -35 8 -54
11 -202 34 -350 105 -471 227 -167 168 -299 518 -345 913 -5 47 -5 266 0 305
3 19 19 100 36 180 17 80 33 159 35 175 3 17 12 59 20 95 8 36 25 119 39 185
14 66 46 219 72 340 25 121 48 229 50 240 2 11 8 43 14 70 6 28 12 59 14 70 2
11 20 94 39 185 19 91 38 183 43 205 4 22 8 42 9 45 0 3 4 21 8 40 10 47 13
63 32 150 24 111 24 111 31 163 4 26 5 47 3 47 -2 0 -62 12 -134 26 -71 14
-143 28 -160 31 -16 2 -58 10 -92 17 l-62 13 -6 -26z m-185 -3445 c0 -6 -7 -1
-15 10 -8 10 -15 23 -15 28 0 6 7 1 15 -10 8 -10 15 -23 15 -28z m109 -160
c-2 -2 -13 8 -23 22 l-19 27 24 -22 c12 -12 21 -24 18 -27z m47 -48 l29 -33
-32 29 c-31 28 -38 36 -30 36 2 0 16 -15 33 -32z m79 -78 c21 -22 37 -40 34
-40 -3 0 -23 18 -44 40 -21 22 -37 40 -34 40 3 0 23 -18 44 -40z"/>
</g>
</svg>
